<?xml version="1.0" encoding="utf-8"?>
<!-- Generator: Adobe Illustrator 16.0.0, SVG Export Plug-In . SVG Version: 6.00 Build 0)  -->
<!DOCTYPE svg PUBLIC "-//W3C//DTD SVG 1.1//EN" "http://www.w3.org/Graphics/SVG/1.1/DTD/svg11.dtd">
<svg version="1.1" id="Layer_1" xmlns="http://www.w3.org/2000/svg" xmlns:xlink="http://www.w3.org/1999/xlink" x="0px" y="0px"
	 width="288.813px" height="94px" viewBox="0 0 288.813 94" enable-background="new 0 0 288.813 94" xml:space="preserve">
<g>
	<g>
		<g>
			<path fill-rule="evenodd" clip-rule="evenodd" fill="#24ACE0" d="M22.62,72.367c0.176-0.643,0.351-1.287,0.524-1.932
				c0.486,1.429,0.729,2.788,0.002,4.101C22.797,73.854,23.313,72.967,22.62,72.367z"/>
			<path fill-rule="evenodd" clip-rule="evenodd" fill="#24ACE0" d="M24.733,78.934c0.23-0.423,0.462-0.848,1-1.836
				c0,1.979,0,3.302,0,4.629C24.861,80.988,25.879,79.573,24.733,78.934z"/>
			<g>
				<path fill="#14BFF4" d="M90.584,40.426c-0.659-3.485-1.616-3.887-4.874-2.451c-3.351,1.477-5.102,0.393-4.878-3.283
					c0.17-2.755-0.923-4.766-2.96-6.338c-1.513-1.172-3.173-2.156-4.796-3.174c-1.734-1.082-3.34-2.303-4.158-4.227
					c-0.403-0.95-0.645-2.09,0.438-2.855c0.97-0.68,1.893-0.207,2.614,0.449c1.226,1.117,2.327,2.367,3.522,3.519
					c1.186,1.138,2.473,1.288,3.682,0.05c1.149-1.179,0.904-2.451-0.18-3.46c-1.461-1.364-2.303-3.038-2.979-4.857
					c-1.04-2.784-2.384-5.362-5.249-6.749c1.145-1.604,2.42-2.928,2.506-4.684c-0.936-0.957-2.151,0.885-2.334-0.053
					c-0.673-3.473-2.613-1.031-3.24-0.516c-1.507,1.234-2.652,0.936-4.123,0.149c-1.938-1.032-4.045-1.265-6.296-0.882
					c0.372,1.039,1.616,0.958,1.774,1.945c-2.095,0.257-4.168,0.546-5.877,1.859c0.398,0.866,1.639,0.584,1.989,1.541
					c-1.388,0.924-3.116,1.224-4.187,2.627c0.709,0.968,1.836,1.206,2.875,1.777c-1.511,1.753-3.711,2.337-5.41,3.564
					c1.473,0.955,3.146,0.698,5.218,0.946c-1.325,0.981-2.181,1.571-2.982,2.225c-0.865,0.702-2.19,0.587-2.934,1.663
					c0.738,0.225,1.396,0.479,2.075,0.611c0.625,0.125,1.273,0.12,2.07,0.187c-3.165,3.161-3.165,3.161-6.543,0.735
					c-2.809-2.018-5.098-4.515-6.897-7.462c-1.72-2.821-4.219-3.791-7.394-3.099c-1.279,0.277-2.578,0.528-3.803,0.975
					c-8.394,3.051-16.719,6.326-26.246,7.871c4.41,2.045,8.4,2.607,12.543,2.375c0.855-0.48,1.773-0.553,2.766-0.416
					c-0.266,0.9-1.06,0.787-1.688,0.963c-2.642,0.846-5.286,1.695-8.272,2.652c4.689,1.703,9.037,0.72,13.922-0.146
					c-2.28,2.244-4.891,2.532-7.329,3.73c4.745,0.595,8.983-0.215,13.179-1.659c-1.63,2.215-4.13,3.082-6.649,4.734
					c4.021,0.468,7.474,0.415,10.985-0.975c-0.276,1.813-1.587,2.471-2.27,3.615c1.976,1.053,4.021,0.42,6.009,0.244
					c0.053,1.346-1.143,2.004-1.401,3.133c2.03,0.81,3.92,0.266,5.783,0.022c0.252,1.336-1.178,1.892-1.226,3.004
					c2.344,0.521,4.387,0.058,6.334-1.181c2.551-1.627,5.192-1.939,7.971-0.142c-1.469,1.806-3.39,2.968-5.28,4.179
					c-2.964,1.896-6.117,3.845-7.421,7.175c-0.951,2.423-2.405,2.846-4.558,3.244c-3.992,0.739-7.161,2.796-8.491,6.895
					c-1.773,5.459-0.064,11.11-1.265,17.215c1.759-1.401,2.317-2.725,2.746-4.128c0.186-0.18,0.388-0.583,0.472-0.568
					c0.313,0.055,0.109,0.384,0.133,0.577c0.08,0.681,0.17,1.374-0.107,2.039c-0.01,2.295-1.082,4.351-1.675,6.678
					c1.402-0.661,2.302-1.576,3.173-2.525c0.281-0.108,0.646-0.739,0.744,0.166c0.092,0.822-0.138,1.668,0.201,2.472
					c0.166,1.237,0.004,2.559,0.913,3.698c1.819-1.688,1.608-4.133,2.422-6.17c0.918,0.642,1.081,2.013,2.568,1.878
					c-0.55-3.469-1.415-6.864-1.45-10.518c1.232,0.961,1.438,2.575,3,3.172c-0.061-3.467-0.688-6.512-2.672-9.288
					c-2.141-2.996-1.059-5.785,2.504-6.804c-0.076,3.963,1.327,7.17,4.829,9.22c0.685,0.4,0.584,1.021,0.632,1.601
					c0.141,1.78-0.012,3.593-1.049,5.043c-1.535,2.147-1.141,4.2-0.319,6.413c0.86,2.308,1.95,4.474,3.402,6.46
					c0.581,0.792,1.079,1.328,0.589,2.66c-0.953,2.597,0.051,3.713,2.867,3.999c0.695,0.073,1.4,0.039,2.095,0.102
					c1.333,0.117,1.446-0.583,1.13-1.604c-0.416-1.353-1.143-2.521-1.917-3.698c-4.323-6.551-3.865-9.404,2.2-14.118
					c3.204-2.49,5.104-5.582,5.229-9.789c0.119-4.047,1.577-5.703,5.495-6.98c0.995-0.324,1.99-0.659,3.005-0.909
					c4.917-1.206,7.945-4.445,9.865-8.967C76.035,46.95,76,45.889,76.9,45.205c1.257,1.821,2.645,1.636,4.158,0.298
					c1.049-0.924,2.139-1.81,3.277-2.618c0.957-0.678,2.016-2.1,3.138-1.283c1.019,0.741,0.192,2.299,0.013,3.478
					c-0.119,0.767-0.429,1.508-0.701,2.243c-0.287,0.779-0.303,1.566-0.018,2.313c0.365,0.966,0.687,2.209,1.883,2.274
					c1.094,0.062,1.438-1.127,1.844-1.965C92.014,46.8,91.182,43.578,90.584,40.426z"/>
			</g>
		</g>
	</g>
	<g>
		<g>
			<path fill="#FFFFFF" d="M119.341,23.708c1.767,1.75,2.651,4.056,2.651,6.92v18.417c0,0.372-0.187,0.558-0.558,0.558h-1.842
				c-0.372,0-0.558-0.186-0.558-0.558V31.186c0-2.195-0.669-3.99-2.009-5.385c-1.339-1.395-3.089-2.093-5.246-2.093
				c-2.232,0-4.037,0.68-5.413,2.037c-1.376,1.358-2.064,3.135-2.064,5.33v17.97c0,0.372-0.187,0.558-0.558,0.558h-1.842
				c-0.372,0-0.558-0.186-0.558-0.558V11.096c0-0.372,0.186-0.558,0.558-0.558h1.842c0.371,0,0.558,0.187,0.558,0.558v13.672
				c0,0.112,0.028,0.177,0.083,0.195c0.056,0.019,0.102-0.009,0.14-0.083c0.818-1.228,1.897-2.167,3.237-2.818
				c1.339-0.65,2.882-0.977,4.632-0.977C115.257,21.085,117.573,21.959,119.341,23.708z"/>
			<path fill="#FFFFFF" d="M134.324,47.983c-1.861-1.376-3.125-3.218-3.795-5.525c-0.41-1.488-0.614-3.813-0.614-6.976
				c0-3.162,0.204-5.469,0.614-6.92c0.67-2.307,1.925-4.139,3.767-5.497c1.842-1.357,4.102-2.037,6.78-2.037
				c2.604,0,4.846,0.688,6.725,2.064c1.878,1.377,3.134,3.2,3.767,5.469c0.223,0.856,0.372,1.813,0.446,2.874
				c0.074,1.06,0.112,2.409,0.112,4.046c0,1.711-0.038,3.088-0.112,4.129c-0.075,1.042-0.223,1.991-0.446,2.846
				c-0.633,2.307-1.889,4.149-3.767,5.525c-1.879,1.377-4.139,2.064-6.78,2.064C138.416,50.048,136.184,49.36,134.324,47.983z
				 M146.071,45.779c1.396-1.097,2.297-2.539,2.707-4.325c0.26-1.005,0.391-2.976,0.391-5.916c0-2.976-0.111-4.948-0.334-5.916
				c-0.41-1.822-1.312-3.273-2.707-4.353c-1.396-1.079-3.098-1.619-5.106-1.619s-3.702,0.54-5.078,1.619
				c-1.377,1.079-2.27,2.53-2.679,4.353c-0.261,1.154-0.391,3.125-0.391,5.916c0,2.79,0.13,4.763,0.391,5.916
				c0.409,1.823,1.302,3.274,2.679,4.353c1.376,1.08,3.069,1.618,5.078,1.618C142.992,47.425,144.676,46.877,146.071,45.779z"/>
			<path fill="#FFFFFF" d="M174.782,21.922c0.298,0.112,0.409,0.354,0.335,0.726l-0.502,1.786c-0.111,0.373-0.354,0.484-0.726,0.335
				c-0.745-0.297-1.674-0.427-2.79-0.391c-2.084,0.038-3.805,0.828-5.162,2.372c-1.358,1.544-2.037,3.432-2.037,5.665v16.63
				c0,0.372-0.187,0.558-0.558,0.558h-1.842c-0.372,0-0.559-0.186-0.559-0.558v-27.01c0-0.372,0.187-0.558,0.559-0.558h1.842
				c0.371,0,0.558,0.187,0.558,0.558v3.794c0,0.112,0.028,0.177,0.084,0.195c0.056,0.02,0.102-0.028,0.14-0.139
				c0.781-1.451,1.794-2.585,3.041-3.404c1.246-0.818,2.707-1.228,4.381-1.228C172.811,21.252,173.89,21.476,174.782,21.922z"/>
			<path fill="#FFFFFF" d="M184.297,48.904c-1.544-0.65-2.744-1.535-3.6-2.65c-0.855-1.117-1.283-2.345-1.283-3.684v-0.725
				c0-0.372,0.186-0.558,0.559-0.558h1.729c0.371,0,0.558,0.187,0.558,0.558v0.614c0,1.377,0.688,2.558,2.065,3.543
				c1.376,0.986,3.125,1.479,5.245,1.479c2.083,0,3.775-0.502,5.078-1.506s1.954-2.25,1.954-3.739c0-1.042-0.335-1.897-1.005-2.567
				c-0.67-0.669-1.461-1.181-2.372-1.535c-0.912-0.353-2.279-0.809-4.102-1.367c-2.084-0.632-3.758-1.228-5.022-1.786
				s-2.335-1.348-3.209-2.372c-0.874-1.023-1.311-2.316-1.311-3.878c0-2.269,0.901-4.083,2.706-5.441
				c1.804-1.357,4.176-2.037,7.115-2.037c1.972,0,3.711,0.326,5.218,0.977c1.507,0.651,2.679,1.535,3.516,2.651
				c0.837,1.116,1.256,2.381,1.256,3.794v0.167c0,0.373-0.187,0.558-0.559,0.558h-1.729c-0.372,0-0.559-0.186-0.559-0.558v-0.167
				c0-1.414-0.66-2.595-1.98-3.543c-1.321-0.949-3.061-1.423-5.218-1.423c-2.084,0-3.759,0.438-5.022,1.312
				c-1.266,0.875-1.897,2.056-1.897,3.544c0,1.414,0.586,2.475,1.758,3.181c1.172,0.707,3.004,1.433,5.497,2.177
				c2.157,0.633,3.878,1.228,5.161,1.786c1.284,0.558,2.391,1.349,3.321,2.372c0.929,1.024,1.395,2.354,1.395,3.99
				c0,2.344-0.902,4.233-2.706,5.665c-1.806,1.433-4.214,2.148-7.228,2.148C187.617,49.881,185.84,49.556,184.297,48.904z"/>
			<path fill="#FFFFFF" d="M222.468,46.225c1.246-0.799,2.223-1.905,2.93-3.32c0.186-0.335,0.428-0.427,0.726-0.279l1.451,0.726
				c0.335,0.187,0.427,0.428,0.279,0.725c-0.819,1.823-2.112,3.274-3.879,4.353c-1.768,1.079-3.842,1.618-6.223,1.618
				c-2.604,0-4.818-0.632-6.641-1.897c-1.823-1.264-3.069-2.994-3.739-5.19c-0.298-0.929-0.502-1.971-0.613-3.125
				c-0.112-1.153-0.168-2.604-0.168-4.353c0-1.823,0.028-3.199,0.084-4.13c0.056-0.929,0.176-1.786,0.362-2.567
				c0.595-2.344,1.814-4.222,3.655-5.636c1.842-1.414,4.103-2.121,6.781-2.121c3.05,0,5.487,0.791,7.311,2.372
				c1.822,1.582,2.957,3.767,3.403,6.557c0.112,0.707,0.187,1.535,0.224,2.483c0.036,0.949,0.056,2.13,0.056,3.543
				c0,0.373-0.187,0.558-0.558,0.558h-18.193c-0.148,0-0.223,0.075-0.223,0.223c0,2.381,0.092,3.962,0.279,4.744
				c0.408,1.823,1.329,3.265,2.762,4.325c1.432,1.06,3.246,1.59,5.441,1.59C219.724,47.425,221.221,47.025,222.468,46.225z
				 M209.493,33.809c0,0.149,0.074,0.223,0.223,0.223h15.57c0.148,0,0.223-0.074,0.223-0.223c0-1.86-0.093-3.255-0.278-4.186
				c-0.41-1.786-1.303-3.227-2.679-4.325c-1.377-1.097-3.069-1.646-5.078-1.646c-2.01,0-3.684,0.53-5.022,1.59
				c-1.34,1.061-2.196,2.465-2.567,4.213C209.697,30.163,209.567,31.614,209.493,33.809z"/>
			<path fill="#FFFFFF" d="M242.836,14.723c-0.801,1.042-1.199,2.734-1.199,5.078v1.451c0,0.149,0.073,0.223,0.223,0.223h6.529
				c0.371,0,0.559,0.187,0.559,0.558v1.618c0,0.373-0.188,0.558-0.559,0.558h-6.529c-0.149,0-0.223,0.075-0.223,0.223v24.611
				c0,0.372-0.188,0.558-0.559,0.558h-1.842c-0.372,0-0.558-0.186-0.558-0.558V24.433c0-0.148-0.075-0.223-0.224-0.223h-3.683
				c-0.373,0-0.559-0.186-0.559-0.558v-1.618c0-0.372,0.186-0.558,0.559-0.558h3.683c0.148,0,0.224-0.074,0.224-0.223V19.69
				c0-2.195,0.251-3.943,0.753-5.246c0.503-1.302,1.358-2.278,2.567-2.93c1.208-0.65,2.91-0.977,5.106-0.977h1.45
				c0.372,0,0.559,0.187,0.559,0.558v1.507c0,0.372-0.187,0.558-0.559,0.558h-1.228C245.133,13.161,243.636,13.682,242.836,14.723z
				 M256.48,49.044V11.096c0-0.372,0.186-0.558,0.559-0.558h1.841c0.372,0,0.559,0.187,0.559,0.558v37.948
				c0,0.372-0.187,0.558-0.559,0.558h-1.841C256.666,49.602,256.48,49.416,256.48,49.044z"/>
			<path fill="#FFFFFF" d="M267.196,60.205v-1.451c0-0.372,0.186-0.559,0.558-0.559h0.224c1.413-0.037,2.52-0.27,3.32-0.697
				c0.799-0.428,1.487-1.219,2.064-2.372c0.576-1.153,1.256-2.939,2.037-5.357c0.074-0.148,0.074-0.26,0-0.334l-9.543-27.345
				l-0.056-0.223c0-0.26,0.167-0.391,0.502-0.391h1.897c0.335,0,0.559,0.149,0.67,0.446l7.924,23.662
				c0.037,0.075,0.093,0.112,0.168,0.112c0.074,0,0.13-0.037,0.167-0.112l7.701-23.662c0.112-0.297,0.335-0.446,0.67-0.446h1.897
				c0.409,0,0.558,0.205,0.446,0.614l-10.547,30.358c-0.856,2.418-1.656,4.204-2.399,5.357c-0.745,1.153-1.628,1.935-2.651,2.344
				s-2.446,0.614-4.269,0.614h-0.391C267.326,60.763,267.196,60.576,267.196,60.205z"/>
		</g>
	</g>
	<g>
		<path fill="#FFFFFF" d="M127.154,72.695c1.218,1.218,1.827,2.893,1.827,5.024v13.952c0,0.276-0.139,0.415-0.416,0.415h-1.329
			c-0.277,0-0.416-0.139-0.416-0.415V78.135c0-1.633-0.478-2.928-1.433-3.883s-2.194-1.433-3.716-1.433
			c-1.606,0-2.9,0.472-3.882,1.412c-0.983,0.941-1.474,2.215-1.474,3.82v13.62c0,0.276-0.139,0.415-0.416,0.415h-1.329
			c-0.277,0-0.415-0.139-0.415-0.415V78.135c0-1.633-0.471-2.928-1.412-3.883c-0.941-0.955-2.173-1.433-3.696-1.433
			c-1.634,0-2.927,0.472-3.882,1.412c-0.955,0.941-1.433,2.215-1.433,3.82v13.62c0,0.276-0.139,0.415-0.416,0.415h-1.37
			c-0.277,0-0.415-0.139-0.415-0.415V71.574c0-0.276,0.138-0.416,0.415-0.416h1.37c0.277,0,0.416,0.14,0.416,0.416v1.868
			c0,0.056,0.027,0.098,0.083,0.125c0.055,0.027,0.097,0.014,0.125-0.042c0.582-0.886,1.363-1.55,2.346-1.993
			c0.982-0.442,2.097-0.664,3.343-0.664c1.439,0,2.678,0.312,3.716,0.934c1.038,0.623,1.82,1.502,2.346,2.638
			c0.055,0.11,0.125,0.124,0.208,0.041c0.582-1.189,1.426-2.09,2.533-2.699c1.107-0.608,2.394-0.913,3.862-0.913
			C124.316,70.868,125.935,71.478,127.154,72.695z"/>
		<path fill="#FFFFFF" d="M150.449,72.716c1.273,1.26,1.91,2.955,1.91,5.087v13.869c0,0.276-0.139,0.415-0.415,0.415h-1.37
			c-0.277,0-0.416-0.139-0.416-0.415V89.72c0-0.055-0.021-0.097-0.062-0.124c-0.042-0.027-0.09-0.014-0.146,0.041
			c-0.72,0.914-1.655,1.606-2.803,2.076c-1.149,0.471-2.429,0.706-3.841,0.706c-1.91,0-3.529-0.483-4.858-1.453
			c-1.329-0.969-1.993-2.45-1.993-4.443c0-2.048,0.761-3.668,2.284-4.858c1.522-1.189,3.613-1.785,6.271-1.785h4.983
			c0.11,0,0.166-0.056,0.166-0.166v-1.869c0-1.55-0.436-2.782-1.308-3.695c-0.872-0.914-2.208-1.37-4.007-1.37
			c-1.412,0-2.575,0.29-3.488,0.872c-0.914,0.581-1.481,1.356-1.703,2.325c-0.083,0.276-0.249,0.401-0.498,0.373l-1.454-0.207
			c-0.305-0.056-0.429-0.166-0.374-0.332c0.249-1.495,1.059-2.699,2.429-3.613c1.37-0.913,3.079-1.37,5.128-1.37
			C147.32,70.826,149.175,71.456,150.449,72.716z M148.228,89.222c1.287-0.857,1.931-2.048,1.931-3.571v-3.778
			c0-0.11-0.056-0.166-0.166-0.166h-4.775c-1.966,0-3.55,0.415-4.754,1.245c-1.204,0.831-1.807,1.979-1.807,3.447
			c0,1.356,0.471,2.381,1.412,3.072c0.941,0.692,2.145,1.038,3.613,1.038C145.424,90.509,146.94,90.08,148.228,89.222z"/>
		<path fill="#FFFFFF" d="M161.245,66.383c-0.388-0.387-0.581-0.885-0.581-1.494s0.193-1.107,0.581-1.495s0.886-0.581,1.495-0.581
			c0.608,0,1.106,0.193,1.495,0.581c0.387,0.388,0.581,0.886,0.581,1.495s-0.194,1.107-0.581,1.494
			c-0.389,0.389-0.887,0.582-1.495,0.582C162.131,66.965,161.633,66.771,161.245,66.383z M161.536,91.63V71.532
			c0-0.276,0.138-0.415,0.415-0.415h1.37c0.276,0,0.415,0.139,0.415,0.415V91.63c0,0.277-0.139,0.415-0.415,0.415h-1.37
			C161.674,92.045,161.536,91.907,161.536,91.63z"/>
		<path fill="#FFFFFF" d="M173.744,91.672V63.435c0-0.276,0.139-0.415,0.415-0.415h1.37c0.277,0,0.416,0.139,0.416,0.415v28.237
			c0,0.276-0.139,0.415-0.416,0.415h-1.37C173.883,92.087,173.744,91.948,173.744,91.672z"/>
		<path fill="#FFFFFF" d="M196.354,89.574c0.928-0.595,1.654-1.418,2.181-2.471c0.138-0.249,0.317-0.317,0.539-0.207l1.08,0.54
			c0.249,0.139,0.317,0.318,0.208,0.539c-0.609,1.357-1.572,2.437-2.887,3.239c-1.314,0.804-2.858,1.204-4.63,1.204
			c-1.938,0-3.585-0.471-4.941-1.412c-1.356-0.94-2.283-2.228-2.782-3.861c-0.222-0.691-0.373-1.467-0.456-2.325
			s-0.125-1.938-0.125-3.239c0-1.355,0.021-2.381,0.063-3.072c0.041-0.692,0.131-1.329,0.27-1.91c0.442-1.744,1.35-3.142,2.72-4.194
			c1.371-1.052,3.053-1.578,5.046-1.578c2.27,0,4.083,0.589,5.439,1.765c1.355,1.178,2.201,2.804,2.533,4.88
			c0.083,0.525,0.138,1.142,0.166,1.848c0.027,0.706,0.041,1.585,0.041,2.637c0,0.277-0.139,0.415-0.415,0.415h-13.537
			c-0.11,0-0.166,0.056-0.166,0.166c0,1.772,0.069,2.948,0.208,3.529c0.304,1.357,0.989,2.43,2.056,3.219
			c1.064,0.789,2.414,1.184,4.048,1.184C194.312,90.468,195.426,90.17,196.354,89.574z M186.699,80.336
			c0,0.11,0.056,0.166,0.166,0.166h11.586c0.11,0,0.166-0.056,0.166-0.166c0-1.385-0.069-2.423-0.208-3.115
			c-0.305-1.328-0.97-2.4-1.993-3.218c-1.024-0.816-2.284-1.225-3.778-1.225c-1.495,0-2.741,0.395-3.737,1.184
			c-0.997,0.788-1.634,1.834-1.91,3.135C186.852,77.623,186.755,78.702,186.699,80.336z"/>
		<path fill="#FFFFFF" d="M219.587,71.491c0.221,0.083,0.304,0.263,0.249,0.539l-0.374,1.329c-0.083,0.277-0.264,0.36-0.54,0.249
			c-0.554-0.221-1.245-0.317-2.076-0.291c-1.551,0.028-2.831,0.617-3.841,1.766c-1.011,1.148-1.516,2.554-1.516,4.214v12.375
			c0,0.276-0.139,0.415-0.415,0.415h-1.37c-0.277,0-0.416-0.139-0.416-0.415V71.574c0-0.276,0.139-0.416,0.416-0.416h1.37
			c0.276,0,0.415,0.14,0.415,0.416v2.823c0,0.083,0.021,0.132,0.063,0.146c0.041,0.014,0.075-0.021,0.104-0.104
			c0.581-1.08,1.335-1.924,2.263-2.533c0.928-0.608,2.015-0.914,3.26-0.914C218.119,70.992,218.922,71.158,219.587,71.491z"/>
	</g>
	<g>
		<path fill="#FFFFFF" d="M262.833,79l-29.096-0.005c0,0,0.256,2.361,1.789,2.515h26.788"/>
		<path fill="#FFFFFF" d="M228.822,83.412c0,0,0.236,2.551,2.596,3.093h28.045l-0.622,3.712c0,0,0.125,2.006,2.108,1.933h20.295
			c0,0,3.163,0.767,3.846-4.409l2.108-13.993c0,0,1.553-4.251-3.162-4.019h-22.59c0,0-0.187,2.859,2.046,3.015h20.171l-10.301,7.42
			l-6.703-6.184h-25.662c0,0-0.562,2.936,1.986,2.858h22.868l7.511,6.882l11.354-8.503l-1.92,12.679c0,0-0.13,1.777-1.991,1.39
			h-19.48l0.803-5.873H228.822z"/>
	</g>
</g>
</svg>
